<svg width="24" height="24" viewBox="0 0 24 24" fill="none" xmlns="http://www.w3.org/2000/svg">
<path d="M20 18.697C20 19.021 19.9279 19.354 19.7747 19.678C19.6214 20.002 19.4231 20.308 19.1617 20.596C18.7201 21.082 18.2334 21.433 17.6835 21.658C17.1427 21.883 16.5568 22 15.9259 22C15.0065 22 14.024 21.784 12.9875 21.343C11.9509 20.902 10.9144 20.308 9.88683 19.561C8.85028 18.805 7.8678 17.968 6.9304 17.041C6.002 16.105 5.16375 15.124 4.41562 14.098C3.67651 13.072 3.08162 12.046 2.64897 11.029C2.21632 10.003 2 9.022 2 8.086C2 7.474 2.10816 6.889 2.32449 6.349C2.54081 5.8 2.88333 5.296 3.36104 4.846C3.93791 4.279 4.56885 4 5.23585 4C5.48823 4 5.74061 4.054 5.96595 4.162C6.2003 4.27 6.40761 4.432 6.56986 4.666L8.66099 7.609C8.82324 7.834 8.94041 8.041 9.02153 8.239C9.10265 8.428 9.14772 8.617 9.14772 8.788C9.14772 9.004 9.08463 9.22 8.95844 9.427C8.84126 9.634 8.67001 9.85 8.45368 10.066L7.76865 10.777C7.6695 10.876 7.62444 10.993 7.62444 11.137C7.62444 11.209 7.63345 11.272 7.65148 11.344C7.67852 11.416 7.70556 11.47 7.72359 11.524C7.88583 11.821 8.16525 12.208 8.56184 12.676C8.96745 13.144 9.4001 13.621 9.8688 14.098C10.3555 14.575 10.8242 15.016 11.302 15.421C11.7707 15.817 12.1582 16.087 12.4647 16.249C12.5098 16.267 12.5638 16.294 12.6269 16.321C12.699 16.348 12.7712 16.357 12.8523 16.357C13.0055 16.357 13.1227 16.303 13.2218 16.204L13.9069 15.529C14.1322 15.304 14.3485 15.133 14.5558 15.025C14.7631 14.899 14.9705 14.836 15.1958 14.836C15.3671 14.836 15.5473 14.872 15.7456 14.953C15.9439 15.034 16.1512 15.151 16.3766 15.304L19.36 17.419C19.5944 17.581 19.7566 17.77 19.8558 17.995C19.9459 18.22 20 18.445 20 18.697Z" stroke="white" stroke-width="1.5" stroke-miterlimit="10"/>
<path d="M22 4.99713V7.50026C22 7.66296 21.9937 7.81941 21.975 7.9696C21.831 9.65921 20.836 10.4977 19.0025 10.4977H18.7522C18.5957 10.4977 18.4455 10.5728 18.3517 10.698L17.6008 11.6993C17.2691 12.1436 16.7309 12.1436 16.3992 11.6993L15.6483 10.698C15.5669 10.5916 15.3855 10.4977 15.2478 10.4977H14.9975C13.0013 10.4977 12 10.0034 12 7.50026V4.99713C12 3.16359 12.8448 2.1686 14.5282 2.02467C14.6784 2.0059 14.8348 1.99963 14.9975 1.99963H19.0025C20.9987 1.99963 22 3.00089 22 4.99713Z" stroke="white" stroke-width="1.5" stroke-miterlimit="10" stroke-linecap="round" stroke-linejoin="round"/>
<path d="M19.1939 6.53652H19.1995" stroke="white" stroke-width="1.5" stroke-linecap="round" stroke-linejoin="round"/>
<path d="M17.0034 6.53652H17.0091" stroke="white" stroke-width="1.5" stroke-linecap="round" stroke-linejoin="round"/>
<path d="M14.813 6.53652H14.8186" stroke="white" stroke-width="1.5" stroke-linecap="round" stroke-linejoin="round"/>
</svg>
