<svg width="24" height="24" viewBox="0 0 24 24" fill="none" xmlns="http://www.w3.org/2000/svg">
<path d="M14.3066 18.1537C13.4779 19.8374 12.5816 20.3999 12.0004 20.3999C11.4191 20.3999 10.5229 19.8374 9.69414 18.1537C8.98164 16.7062 8.49039 14.7299 8.41164 12.5999H15.5891C15.5104 14.7299 15.0191 16.7062 14.3066 18.1537ZM15.5891 11.3999H8.41164C8.49039 9.2699 8.98164 7.29365 9.69414 5.84615C10.5229 4.1624 11.4191 3.5999 12.0004 3.5999C12.5816 3.5999 13.4779 4.1624 14.3066 5.84615C15.0191 7.29365 15.5104 9.2699 15.5891 11.3999ZM16.7891 12.5999H20.3779C20.1341 16.0687 17.7829 18.9562 14.5954 19.9912C15.8329 18.3337 16.6879 15.5737 16.7891 12.5999ZM20.3779 11.3999H16.7891C16.6879 8.42615 15.8329 5.66615 14.5954 4.00865C17.7829 5.04365 20.1341 7.93115 20.3779 11.3999ZM7.20789 11.3999H3.61914C3.86289 7.93115 6.21414 5.04365 9.40164 4.00865C8.16414 5.66615 7.30914 8.42615 7.20789 11.3999ZM3.62289 12.5999H7.21164C7.31289 15.5737 8.16789 18.3337 9.40539 19.9912C6.21789 18.9562 3.86664 16.0687 3.62289 12.5999ZM12.0004 21.5999C17.3029 21.5999 21.6004 17.3024 21.6004 11.9999C21.6004 6.6974 17.3029 2.3999 12.0004 2.3999C6.69789 2.3999 2.40039 6.6974 2.40039 11.9999C2.40039 17.3024 6.69789 21.5999 12.0004 21.5999Z" fill="#091019"/>
</svg>
