<svg width="24" height="24" viewBox="0 0 24 24" fill="none" xmlns="http://www.w3.org/2000/svg">
<path d="M15.459 16.5C15.6966 16.4998 15.931 16.556 16.1426 16.6641C16.3542 16.7723 16.5377 16.9293 16.6768 17.1221C16.8159 17.3149 16.9064 17.5384 16.9424 17.7734C16.9783 18.0083 16.9579 18.2482 16.8828 18.4736L15.8838 21.4736C15.7842 21.7727 15.5927 22.0336 15.3369 22.2178C15.0811 22.4019 14.7732 22.5004 14.458 22.5H9.54004C9.22474 22.5005 8.91706 22.4019 8.66113 22.2178C8.40518 22.0336 8.2139 21.7728 8.11426 21.4736L7.11426 18.4736C7.03926 18.2483 7.01881 18.0082 7.05469 17.7734C7.09066 17.5384 7.18212 17.3149 7.32129 17.1221C7.46048 16.9293 7.64368 16.7722 7.85547 16.6641C8.06712 16.556 8.30142 16.4998 8.53906 16.5H15.459ZM8.53906 18L9.54004 21H14.458L15.458 18H8.53906ZM17.71 9C17.9478 8.99967 18.1827 9.05587 18.3945 9.16406C18.6063 9.27225 18.7895 9.42922 18.9287 9.62207C19.0679 9.81496 19.1594 10.0383 19.1953 10.2734C19.2312 10.5086 19.21 10.749 19.1348 10.9746L18.1348 13.9746C18.035 14.2736 17.8438 14.5337 17.5879 14.7178C17.332 14.9018 17.0242 15.0006 16.709 15H7.29101C6.97602 15.0004 6.66882 14.9017 6.41309 14.7178C6.1573 14.5337 5.96594 14.2735 5.86621 13.9746L4.86621 10.9746C4.79097 10.749 4.77078 10.5085 4.80664 10.2734C4.84255 10.0385 4.93322 9.81486 5.07226 9.62207C5.21137 9.42928 5.39476 9.27227 5.60644 9.16406C5.81805 9.05594 6.05241 8.99985 6.29004 9H17.71ZM7.29101 13.5H16.709L17.709 10.5H6.29004L7.29101 13.5ZM19.3633 1.5C19.5811 1.49987 19.7965 1.54722 19.9941 1.63867C20.1919 1.73025 20.3679 1.86399 20.5088 2.03027C20.6495 2.19657 20.7528 2.3915 20.8105 2.60156C20.8683 2.81163 20.8787 3.0322 20.8428 3.24707L20.3428 6.24707C20.2855 6.59757 20.105 6.9159 19.834 7.14551C19.563 7.3751 19.2194 7.501 18.8643 7.5H5.13476C4.77949 7.50108 4.43512 7.37519 4.16406 7.14551C3.89318 6.9159 3.71256 6.59752 3.65527 6.24707L3.15527 3.24707C3.11943 3.03216 3.13062 2.81162 3.18848 2.60156C3.24634 2.39153 3.34941 2.19651 3.49023 2.03027C3.63104 1.86408 3.80627 1.73026 4.00391 1.63867C4.20154 1.5471 4.41695 1.5 4.63476 1.5H19.3633ZM4.63476 3L5.13476 6H18.8633L19.3643 3H4.63476Z" fill="white"/>
</svg>
