<svg width="17" height="16" viewBox="0 0 17 16" fill="none" xmlns="http://www.w3.org/2000/svg">
<mask id="path-1-inside-1_629_62603" fill="white">
<path d="M11.7016 6.8001C11.7016 4.3701 9.73156 2.4001 7.30156 2.4001C4.87156 2.4001 2.90156 4.3701 2.90156 6.8001C2.90156 9.2301 4.87156 11.2001 7.30156 11.2001C9.73156 11.2001 11.7016 9.2301 11.7016 6.8001ZM10.6841 10.7501C9.77656 11.5301 8.59406 12.0001 7.30156 12.0001C4.42906 12.0001 2.10156 9.6726 2.10156 6.8001C2.10156 3.9276 4.42906 1.6001 7.30156 1.6001C10.1741 1.6001 12.5016 3.9276 12.5016 6.8001C12.5016 8.0926 12.0316 9.2751 11.2516 10.1826L14.7841 13.7176C14.9391 13.8726 14.9391 14.1276 14.7841 14.2826C14.6291 14.4376 14.3741 14.4376 14.2191 14.2826L10.6841 10.7501Z"/>
</mask>
<path d="M11.7016 6.8001C11.7016 4.3701 9.73156 2.4001 7.30156 2.4001C4.87156 2.4001 2.90156 4.3701 2.90156 6.8001C2.90156 9.2301 4.87156 11.2001 7.30156 11.2001C9.73156 11.2001 11.7016 9.2301 11.7016 6.8001ZM10.6841 10.7501C9.77656 11.5301 8.59406 12.0001 7.30156 12.0001C4.42906 12.0001 2.10156 9.6726 2.10156 6.8001C2.10156 3.9276 4.42906 1.6001 7.30156 1.6001C10.1741 1.6001 12.5016 3.9276 12.5016 6.8001C12.5016 8.0926 12.0316 9.2751 11.2516 10.1826L14.7841 13.7176C14.9391 13.8726 14.9391 14.1276 14.7841 14.2826C14.6291 14.4376 14.3741 14.4376 14.2191 14.2826L10.6841 10.7501Z" fill="#091019"/>
<path d="M10.6841 10.7501L11.5323 9.90127L10.7455 9.11499L9.90187 9.84005L10.6841 10.7501ZM11.2516 10.1826L10.3415 9.40041L9.61646 10.244L10.4027 11.0308L11.2516 10.1826ZM14.7841 13.7176L13.9352 14.5658L13.9355 14.5661L14.7841 13.7176ZM14.2191 14.2826L15.0676 13.4341L15.0673 13.4338L14.2191 14.2826ZM11.7016 6.8001H12.9016C12.9016 3.70736 10.3943 1.2001 7.30156 1.2001V2.4001V3.6001C9.06882 3.6001 10.5016 5.03284 10.5016 6.8001H11.7016ZM7.30156 2.4001V1.2001C4.20882 1.2001 1.70156 3.70736 1.70156 6.8001H2.90156H4.10156C4.10156 5.03284 5.5343 3.6001 7.30156 3.6001V2.4001ZM2.90156 6.8001H1.70156C1.70156 9.89284 4.20882 12.4001 7.30156 12.4001V11.2001V10.0001C5.5343 10.0001 4.10156 8.56736 4.10156 6.8001H2.90156ZM7.30156 11.2001V12.4001C10.3943 12.4001 12.9016 9.89284 12.9016 6.8001H11.7016H10.5016C10.5016 8.56736 9.06882 10.0001 7.30156 10.0001V11.2001ZM10.6841 10.7501L9.90187 9.84005C9.20508 10.4389 8.29801 10.8001 7.30156 10.8001V12.0001V13.2001C8.89012 13.2001 10.348 12.6212 11.4662 11.6601L10.6841 10.7501ZM7.30156 12.0001V10.8001C5.0918 10.8001 3.30156 9.00986 3.30156 6.8001H2.10156H0.901562C0.901562 10.3353 3.76632 13.2001 7.30156 13.2001V12.0001ZM2.10156 6.8001H3.30156C3.30156 4.59034 5.0918 2.8001 7.30156 2.8001V1.6001V0.400098C3.76632 0.400098 0.901562 3.26486 0.901562 6.8001H2.10156ZM7.30156 1.6001V2.8001C9.51132 2.8001 11.3016 4.59034 11.3016 6.8001H12.5016H13.7016C13.7016 3.26486 10.8368 0.400098 7.30156 0.400098V1.6001ZM12.5016 6.8001H11.3016C11.3016 7.79654 10.9404 8.70362 10.3415 9.40041L11.2516 10.1826L12.1616 10.9648C13.1227 9.84658 13.7016 8.38865 13.7016 6.8001H12.5016ZM11.2516 10.1826L10.4027 11.0308L13.9352 14.5658L14.7841 13.7176L15.6329 12.8694L12.1004 9.33437L11.2516 10.1826ZM14.7841 13.7176L13.9355 14.5661C13.6219 14.2525 13.6219 13.7477 13.9355 13.4341L14.7841 14.2826L15.6326 15.1311C16.2562 14.5075 16.2562 13.4927 15.6326 12.8691L14.7841 13.7176ZM14.7841 14.2826L13.9355 13.4341C14.2492 13.1204 14.754 13.1204 15.0676 13.4341L14.2191 14.2826L13.3705 15.1311C13.9942 15.7548 15.009 15.7548 15.6326 15.1311L14.7841 14.2826ZM14.2191 14.2826L15.0673 13.4338L11.5323 9.90127L10.6841 10.7501L9.83583 11.5989L13.3708 15.1314L14.2191 14.2826Z" fill="white" mask="url(#path-1-inside-1_629_62603)"/>
</svg>
