<svg width="40" height="39" viewBox="0 0 40 39" fill="none" xmlns="http://www.w3.org/2000/svg">
<path d="M13.7059 19.9699H11.1122C12.315 20.2762 12.6745 21.4807 11.8061 23.7702L7.54834 34.772C11.3095 35.2454 12.8802 33.7728 14.766 32.12C23.219 21.83 30.276 17.1754 38.309 13.6487C25.9328 14.166 16.7386 23.3332 13.7059 27.7935L15.6435 22.7561C16.167 20.4876 14.5699 19.9534 13.7059 19.9699Z" fill="#FF6600"/>
<path d="M24.8383 24.0646L26.4318 28.1463L22.8171 25.8561L21.1074 27.7991L31.8716 34.7939L27.053 22.1228L24.8383 24.0646Z" fill="black"/>
<path d="M25.0785 16.4068C26.5492 15.4404 28.9674 14.3185 29.9927 13.8783L23.8682 13.7965L20.1072 4.14331L16.4272 13.7965H1.68994L5.74169 16.4068H18.4412L20.1072 11.7252L22.0049 16.4068H25.0785Z" fill="black"/>
</svg>
